<svg width="24" height="20" viewBox="0 0 24 20" xmlns="http://www.w3.org/2000/svg" xmlns:xlink="http://www.w3.org/1999/xlink"><title>Breadcrumbs</title><defs><path d="M0 11.244v3.76A5 5 0 0 0 5.002 20h13.996A4.997 4.997 0 0 0 24 15.005V4.995C24 2.235 21.76 0 18.998 0H5.002A4.997 4.997 0 0 0 0 4.995V9.39h3.658a.9.9 0 0 1 .668.277.912.912 0 0 1 .274.665c0 .26-.09.476-.274.65a.93.93 0 0 1-.668.262H0zm11.578 2.898a.83.83 0 0 1-.247.61.83.83 0 0 1-.61.248H6.47c-.26 0-.47-.08-.625-.24a.85.85 0 0 1-.234-.618c0-.355.04-.68.11-.975a3.39 3.39 0 0 1 .32-.806c.14-.24.29-.46.47-.66s.37-.392.58-.58a9.44 9.44 0 0 1 .927-.71c.32-.216.613-.432.877-.65a3.43 3.43 0 0 0 .65-.69 1.4 1.4 0 0 0 .255-.82 1.56 1.56 0 0 0-.065-.44 1.012 1.012 0 0 0-.215-.39 1.098 1.098 0 0 0-.385-.272 1.37 1.37 0 0 0-.556-.104c-.26 0-.48.03-.666.085a2.328 2.328 0 0 0-.497.215c-.19.104-.343.2-.46.29a.688.688 0 0 1-.436.14.832.832 0 0 1-.59-.24.798.798 0 0 1-.253-.605.97.97 0 0 1 .064-.35.744.744 0 0 1 .248-.313c.71-.562 1.592-.844 2.65-.844.536 0 .99.086 1.364.26.372.172.675.395.91.67.233.272.404.577.513.915.108.336.16.665.16.986 0 .46-.08.86-.245 1.197a3.39 3.39 0 0 1-.63.904 6.01 6.01 0 0 1-.856.734 40.72 40.72 0 0 0-.92.67c-.295.22-.565.452-.813.7-.246.25-.43.53-.55.85h3.16a.83.83 0 0 1 .61.248.815.815 0 0 1 .25.6zm7.618-1.534a.81.81 0 0 1-.24.585.778.778 0 0 1-.58.247h-.337v.806a.84.84 0 0 1-.26.617.84.84 0 0 1-.62.254.82.82 0 0 1-.61-.254.852.852 0 0 1-.25-.617v-.806h-2.83a.8.8 0 0 1-.58-.234.798.798 0 0 1-.24-.598c0-.095.01-.173.03-.234.02-.06.045-.12.07-.182L15.4 5.94a.85.85 0 0 1 .48-.476.86.86 0 0 1 1.14.497c.09.23.09.46.004.68l-2.184 5.14h1.47v-1.07c0-.23.082-.43.247-.6a.82.82 0 0 1 .61-.25.84.84 0 0 1 .618.255c.17.17.254.37.254.605v1.066h.33a.78.78 0 0 1 .58.248c.16.165.24.36.24.585z" id="a"/></defs><g fill="none" fill-rule="evenodd"><use xlink:href="#a"/><use fill="#000" xlink:href="#a"/><use xlink:href="#a"/></g></svg>