<svg width="32" height="32" viewBox="0 0 32 32" xmlns="http://www.w3.org/2000/svg"><title>icon_heart-fill</title><path d="M31.892 9.588c-.435-2.65-1.91-4.78-4.434-6.256a8.956 8.956 0 0 0-4.65-1.303c-2.084 0-4.04.74-5.52 2.12-.48.43-.87.87-1.304 1.35-1.26-1.57-2.563-2.52-4.04-3-2.65-.87-5.257-.527-7.647.993C1.432 5.33 0 7.89 0 11.15c0 1.91.652 3.737 1.955 5.56 1.392 1.955 3.13 3.954 5.387 6.3 1.565 1.565 3.13 3.13 4.69 4.65l1.522 1.477.39.39.173.173c.306.262.998.696 1.867.696.74 0 1.432-.305 2.044-.87 2.607-2.477 5.43-5.168 8.083-8.037 1.4-1.48 2.96-3.26 4.26-5.22 1.39-2.13 1.87-4.39 1.53-6.69zM11.164 8.152c-.173.39-.65.563-1.086.39-.39-.173-.78-.26-1.215-.26a2.912 2.912 0 0 0-2.913 2.912c0 .563.173 1.13.48 1.61.26.345.128.868-.218 1.13a.82.82 0 0 1-.435.128c-.26 0-.523-.13-.65-.346a4.617 4.617 0 0 1-.742-2.518c0-2.48 2.044-4.518 4.518-4.518.652 0 1.304.128 1.91.434.35.17.524.648.35 1.038z" fill="#F42000" fill-rule="evenodd"/></svg>