<svg width="32" height="32" viewBox="0 0 32 32" xmlns="http://www.w3.org/2000/svg"><title>icon_map</title><path d="M29.993 2c-.107 0-.18 0-.287.038-.036 0-.073 0-.073.038l-8.86 3.565-8.643-3.45c-.034 0-.034 0-.07-.03-.18-.04-.434-.11-.794-.11h-.07a2.87 2.87 0 0 0-1.117.22c-.04 0-.11.04-.15.04L2.08 5.46C1.18 5.83.966 6.65 1 7.093V28.15c0 .11 0 .557.326.89a.97.97 0 0 0 .682.296 1.1 1.1 0 0 0 .47-.11l8.75-3.528 8.358 3.342.217.076c.18.076.503.148.973.148h.037c.434 0 .794-.075 1.187-.223l8.14-3.26s.035 0 .035-.033c.54-.26.826-.78.826-1.41V3.157C30.97 2.37 30.46 2 29.998 2zM2.3 27.81V7.09c0-.077.038-.262.254-.335l7.78-3.118c.073 0 .106-.038.18-.038v20.94L2.3 27.81zm9.544-3.305V3.523l8.246 3.305v20.98l-8.246-3.303zm17.79-.148c0 .11-.038.148-.074.148l-8.103 3.266s-.037 0-.037.04V6.83l8.21-3.305V24.36h.003zm-6.303-4.903c.18-.334.62-.447.9-.224l1.05.633.94-1.524c.18-.34.618-.41.94-.23.325.18.4.63.22.96l-.938 1.485 1.005.632c.324.183.434.63.217.93-.103.22-.36.33-.574.33a.58.58 0 0 1-.323-.11l-1.042-.634-.937 1.523a.684.684 0 0 1-.576.333.697.697 0 0 1-.36-.11c-.325-.187-.4-.634-.22-.968L24.57 21l-1.01-.632c-.29-.185-.396-.594-.216-.927z" fill="#7596A1" fill-rule="evenodd"/></svg>