<svg width="32" height="32" viewBox="0 0 32 32" xmlns="http://www.w3.org/2000/svg"><title>icon_heart-grey</title><path d="M31.892 9.588c-.435-2.65-1.91-4.78-4.434-6.256a8.956 8.956 0 0 0-4.65-1.303c-2.084 0-4.04.74-5.52 2.12-.48.43-.87.87-1.304 1.35-1.26-1.57-2.563-2.52-4.04-3-2.65-.87-5.257-.527-7.647.993C1.432 5.33 0 7.89 0 11.15c0 1.91.652 3.737 1.955 5.56 1.392 1.955 3.13 3.954 5.387 6.3 1.565 1.565 3.13 3.13 4.69 4.65l1.522 1.477.39.39.173.173c.306.262.998.696 1.867.696.74 0 1.432-.305 2.044-.87 2.607-2.477 5.43-5.168 8.083-8.037 1.4-1.48 2.96-3.26 4.26-5.22 1.39-2.13 1.87-4.39 1.53-6.69zm-2.87 5.778c-1.214 1.866-2.694 3.476-4.082 4.996a170.542 170.542 0 0 1-7.994 7.95c-.346.306-.652.435-.958.435a1.18 1.18 0 0 1-.78-.306l-.13-.12-.39-.39-1.52-1.43c-1.52-1.52-3.13-3.04-4.65-4.603-2.262-2.3-3.867-4.172-5.26-6.083-1.085-1.564-1.65-3.085-1.65-4.65 0-2.695 1.132-4.78 3.522-6.3 1.26-.83 2.607-1.22 3.954-1.22.78 0 1.565.13 2.346.39 1.26.435 2.345 1.26 3.476 2.65.09.09.48.525 1.13.525.262 0 .697-.09 1.087-.525l.044-.09c.435-.48.825-.912 1.215-1.302 1.215-1.13 2.736-1.693 4.434-1.693 1.347 0 2.65.39 3.822 1.085 2.084 1.26 3.303 2.91 3.65 5.12.3 1.96-.09 3.78-1.265 5.562zM11.165 8.152c-.173.39-.65.563-1.086.39a2.92 2.92 0 0 0-1.22-.26 2.912 2.912 0 0 0-2.92 2.912c0 .563.172 1.13.48 1.61.26.345.13.868-.22 1.13a.82.82 0 0 1-.435.128c-.26 0-.523-.13-.65-.346a4.617 4.617 0 0 1-.74-2.518c0-2.48 2.042-4.518 4.516-4.518.654 0 1.306.128 1.91.434.35.17.526.648.35 1.038z" fill="#999" fill-rule="evenodd"/></svg>