<svg width="32" height="32" viewBox="0 0 32 32" xmlns="http://www.w3.org/2000/svg"><title>icon_cart-white</title><path d="M11.58 28.187c-.52 1.324-1.778 2.257-3.247 2.257-1.933 0-3.5-1.617-3.5-3.612 0-1.215.582-2.29 1.475-2.945L2.022 4.71h-.69A1.344 1.344 0 0 1 0 3.353C0 2.606.597 2 1.333 2h2.815l.236 1.054.57 2.558h24.38c.883 0 1.522.857 1.283 1.72l-3.5 12.643a1.337 1.337 0 0 1-1.284.988H8.388l.516 2.305c1.218.206 2.224 1.06 2.675 2.21h11.005c.52-1.324 1.776-2.258 3.245-2.258 1.934 0 3.5 1.618 3.5 3.612 0 1.995-1.566 3.612-3.5 3.612-1.47 0-2.725-.933-3.244-2.257h-11.01zM5.56 8.32l2.222 9.934h17.052l2.74-9.93L5.56 8.32zm20.802 4.347l.5-1.778H6.14l.39 1.774h19.83z" fill="#FFF" fill-rule="evenodd"/></svg>