<svg width="32" height="32" viewBox="0 0 32 32" xmlns="http://www.w3.org/2000/svg"><title>icon_wallet</title><path d="M32 18.16c0-1.637-.986-2.986-2.367-3.52V9.65c0-.86-.673-1.596-1.538-1.596h-2.013V5.72c0-1.106-.87-1.72-1.696-1.72H2.646C1.343 4 .276 4.98.04 6.25 0 6.415 0 6.578 0 6.78c0 .164 0 .29.04.41v1.35C0 8.622 0 8.7 0 8.785V26.22C0 27.733 1.184 29 2.682 29h25.45c.828 0 1.537-.697 1.537-1.595V21.68c1.34-.53 2.33-1.884 2.33-3.52zM2.645 5.516h21.74c.24 0 .24.083.24.204v2.334H2.645c-.08 0-.158 0-.238-.04-.04 0-.04 0-.08-.043-.04 0-.08-.04-.118-.04-.04 0-.04-.04-.08-.04s-.08-.04-.12-.04c-.04 0-.04-.04-.08-.08l-.08-.08-.08-.09c-.04-.04-.04-.04-.04-.082-.04-.04-.04-.083-.08-.12l-.04-.043c-.04-.043-.04-.085-.08-.165-.04-.084-.04-.12-.04-.205 0-.08-.04-.12-.04-.203 0-.082 0-.12.04-.203v-.05c.083-.564.56-1.015 1.15-1.015zM28.17 27.45c0 .042-.04.084-.08.084H2.646c-.672 0-1.224-.573-1.224-1.27V9.24c.04 0 .04 0 .082.042.04.042.116.042.157.083.04 0 .08.042.12.042.04.042.12.042.2.042.04 0 .08 0 .12.04.08 0 .12.04.2.04h25.8c.04 0 .08.04.08.08v4.75h-3.55c-2.01 0-3.63 1.68-3.63 3.76 0 2.084 1.62 3.763 3.63 3.763h3.55v5.554h-.002zm.593-7.08c-.157.04-.278.04-.394.04h-3.75c-1.19 0-2.17-1.023-2.17-2.25 0-1.228.98-2.25 2.17-2.25h3.75c.11 0 .27 0 .39.04 1.02.205 1.77 1.107 1.77 2.21 0 1.102-.75 2.004-1.78 2.21zm-2.798-2.21c0 .45-.355.818-.79.818-.434 0-.79-.367-.79-.818 0-.45.356-.82.79-.82.435 0 .79.37.79.82z" fill="#7596A1" fill-rule="evenodd"/></svg>