<svg width="32" height="32" viewBox="0 0 32 32" xmlns="http://www.w3.org/2000/svg"><title>icon_award</title><path d="M27.667 26.46l-3.554-6.555c2.3-2.105 3.72-5.057 3.72-8.376C27.833 5.17 22.483 0 15.917 0 9.35 0 4 5.18 4 11.533c0 3.52 1.673 6.716 4.266 8.818l-3.302 6.11c-.333.65-.376 1.18-.124 1.62.252.37.713.61 1.255.61h.247l3.512-.77 1.254 2.95c.376.93.96 1.13 1.34 1.13.75 0 1.212-.69 1.42-1.01v-.04l2.51-4.61 2.508 4.61v.04c.167.32.627 1.01 1.378 1.01.376 0 .96-.2 1.34-1.13l1.254-2.95 3.512.77h.248c.542 0 1.002-.2 1.254-.603.213-.446.17-.97-.205-1.62zM5.59 11.533c0-5.544 4.643-10.03 10.37-10.03 5.725 0 10.367 4.49 10.367 10.03 0 3.034-1.42 5.784-3.64 7.645a10.625 10.625 0 0 1-4.893 2.266h-.21l-.835.12c-.26 0-.51.042-.8.042-.17 0-.38 0-.54-.042-.09 0-.21 0-.3-.04h-.09c-.25-.042-.5-.042-.71-.083h-.086c-.25-.04-.46-.08-.71-.12h-.085c-.253-.08-.504-.12-.75-.2h-.044c-1.042-.32-2.002-.85-2.924-1.5 0 0-.042 0-.042-.04-2.495-1.86-4.083-4.77-4.083-8.04zm6.9 18.647l-1.463-3.44a.772.772 0 0 0-.712-.445h-.167l-3.763.81 3.178-5.825c.922.565 1.925 1.01 3.013 1.333.042 0 .085.04.123.04.2.043.41.12.62.162.04 0 .08.042.12.042.25.04.5.082.75.12.04 0 .123 0 .165.04.043 0 .124 0 .167.042l.92 1.7-2.965 5.42zm10.035-3.88c-.375-.083-.75.12-.878.445l-1.464 3.438-2.97-5.502.96-1.82a12.15 12.15 0 0 0 4.724-1.98l3.345 6.23-3.717-.81zm-6.566-8.942c3.3 0 5.97-2.59 5.97-5.784 0-3.195-2.68-5.783-5.98-5.783s-5.97 2.59-5.97 5.79c-.048 3.16 2.67 5.79 5.972 5.79zm0-10.114c2.46 0 4.43 1.94 4.43 4.29 0 2.385-2.01 4.288-4.44 4.288-2.47 0-4.438-1.94-4.438-4.29-.038-2.347 1.967-4.288 4.433-4.288z" fill="#7596A1" fill-rule="evenodd"/></svg>