<svg width="32" height="32" viewBox="0 0 32 32" xmlns="http://www.w3.org/2000/svg"><title>icon_cart</title><path d="M.693 2.024h2.084c.81 0 1.197.438 1.35.714.154.28.193.515.193.677l.308 1.63h25.857c.54 0 .926.158 1.197.478.232.28.347.637.307 1.034v.08L29.09 19c-.154.677-.733 1.43-1.776 1.43H7.75l.54 2.742c.272-.08.54-.117.812-.117 1.622 0 2.973 1.152 3.28 2.74h10.424c.346-1.548 1.658-2.74 3.28-2.74 1.85 0 3.36 1.55 3.36 3.46 0 1.905-1.505 3.458-3.36 3.458-1.622 0-2.973-1.152-3.28-2.742h-10.38c-.348 1.55-1.66 2.75-3.282 2.75-1.85 0-3.36-1.55-3.36-3.46a3.51 3.51 0 0 1 1.2-2.66l-1.08-5.443L3.316 5.85 2.93 3.54v-.08s-.078-.04-.153-.04H.693A.7.7 0 0 1 0 2.704a.693.693 0 0 1 .693-.68zm25.393 26.55c1.08 0 1.93-.875 1.93-1.987 0-1.11-.85-1.987-1.93-1.987s-1.93.876-1.93 1.987c0 1.07.85 1.988 1.93 1.988zm-16.94 0c1.078 0 1.928-.875 1.928-1.987 0-1.11-.85-1.987-1.93-1.987s-1.93.876-1.93 1.987c0 1.07.848 1.988 1.93 1.988zm21.34-22.057H4.898l.54 2.664h24.466l.618-2.62v-.04h-.04zm-2.778 12.16l1.89-8.03H5.788l1.696 8.227c.04.118.193.118.232.118h19.568c.232.004.347-.118.425-.316z" fill="#F42000" fill-rule="evenodd"/></svg>