<svg width="32" height="32" viewBox="0 0 32 32" xmlns="http://www.w3.org/2000/svg"><title>icon_reload</title><path d="M6.96 14.722H3.462c-.15 0-.79-.038-1.166-.564-.15-.226-.338-.602-.188-1.127 1.277-4.99 4.284-8.42 8.91-10.07 5.638-2.03 10.862-.83 15.3 3.54l1.88-1.8c.15-.11.486-.41.9-.41.338 0 .902.226.902 1.05v8.194c0 .603-.414 1.09-1.05 1.205h-8.347c-.188-.04-.79-.11-.978-.676-.077-.23-.15-.64.3-1.09l1.99-2.03c-1.803-1.958-3.985-2.86-6.467-2.67-3.42.3-5.715 2.03-6.992 5.34-.37.86-1.006 1.12-1.496 1.12zm-3.456-1.39h3.46c.037 0 .11-.037.225-.225 1.46-3.76 4.24-5.864 8.15-6.164 3.15-.264 5.9.978 8.08 3.648.22.27.183.68-.04.94l-1.84 1.85h7.03V6.23L26.8 7.96c-.15.11-.34.19-.488.19a.604.604 0 0 1-.49-.228C21.644 3.56 16.8 2.32 11.5 4.238c-4.17 1.503-6.84 4.586-8 9.096zm12.29 17.104c-3.65 0-7.032-1.503-10.112-4.51l-1.88 1.802c-.15.112-.486.415-.9.415-.338 0-.902-.227-.902-1.052v-8.15c0-.6.414-1.09 1.05-1.2h8.31c.187.04.79.11.977.678.076.227.15.64-.3 1.09l-1.99 2.03c1.803 1.955 3.985 2.856 6.466 2.668 3.422-.3 5.715-2.03 6.993-5.34 0 0 0-.036.038-.036.337-.79 1.016-1.05 1.465-1.05h3.49c.15 0 .79.036 1.16.562.15.226.332.6.182 1.127-1.277 5.033-4.246 8.42-8.87 10.11-1.735.564-3.503.87-5.194.87zM5.72 24.27c.188 0 .376.075.488.225 4.173 4.36 9.02 5.6 14.322 3.686 4.135-1.5 6.842-4.54 8.005-9.09h-3.46s-.11.04-.188.23c-1.503 3.76-4.246 5.828-8.158 6.166-3.16.265-5.91-.98-8.09-3.647-.23-.266-.19-.677.04-.94l1.84-1.84H3.49v7.1l1.77-1.73a.856.856 0 0 1 .456-.15z" fill="#7596A1" fill-rule="evenodd"/></svg>