<svg width="32" height="32" viewBox="0 0 32 32" xmlns="http://www.w3.org/2000/svg"><title>icon_finger</title><path d="M24.692 10.926h-1.63c-.153 0-.307.04-.465.04v-.582a1.943 1.943 0 0 0-1.938-1.937h-1.63c-.47 0-.89.154-1.21.427a1.884 1.884 0 0 0-1.2-.427h-1.63c-.16 0-.35.04-.5.08v-6.59A1.943 1.943 0 0 0 12.55 0h-1.63a1.943 1.943 0 0 0-1.93 1.938v8.72c-.194-.155-.348-.31-.502-.428l-.08-.08c-.04-.038-.078-.078-.114-.078-.08-.04-.115-.08-.154-.08a4.146 4.146 0 0 0-2.17-.62h-.35a.71.71 0 0 0-.62.697v11.19C5 27.19 9.805 32 15.736 32a10.742 10.742 0 0 0 10.736-10.076c0-.04.04-.115.04-.194v-8.866c.118-1.044-.732-1.938-1.82-1.938zm.506 4.963v5.85c-.233 4.96-4.342 8.83-9.3 8.83-5.153 0-9.3-4.19-9.3-9.3V10.85c.27.04.62.155.928.35 0 0 .04 0 .04.038l.233.155c.42.308 1.12.97 1.31 1.898v5.43a.69.69 0 0 0 .69.7.692.692 0 0 0 .695-.69V1.977A.51.51 0 0 1 11 1.47h1.63a.51.51 0 0 1 .5.51V16.2a.69.69 0 0 0 .696.695.692.692 0 0 0 .695-.696v-5.78a.51.51 0 0 1 .506-.507h1.63c.23 0 .424.194.464.428v5.81c0 .39.31.698.696.698.387 0 .696-.31.696-.697v-5.77a.51.51 0 0 1 .503-.5h1.63a.46.46 0 0 1 .465.387v6.703c0 .39.31.698.698.698.388 0 .696-.31.696-.7v-4.224a.46.46 0 0 1 .468-.387h1.63a.51.51 0 0 1 .505.502v2.94l.697.08h-.61z" fill="#7596A1" fill-rule="evenodd"/></svg>