<svg width="106" height="42" viewBox="0 0 106 42" xmlns="http://www.w3.org/2000/svg" xmlns:xlink="http://www.w3.org/1999/xlink"><title>Rectangle 2</title><defs><radialGradient cx="100%" cy="0%" fx="100%" fy="0%" r="119.15%" id="b"><stop stop-color="#FF7F5E" offset="0%"/><stop stop-color="#FF3023" offset="100%"/></radialGradient><path d="M56 22.644v14.352C56 39.756 58.24 42 61 42h40c2.754 0 5-2.24 5-5.004V5.004C106 2.244 103.76 0 101 0H61c-2.754 0-5 2.24-5 5.004v14.168h8.264c.485 0 .896.173 1.232.518.336.345.504.76.504 1.246 0 .485-.168.89-.504 1.218a1.7 1.7 0 0 1-1.232.49H56zm24.11 6.286c0 .523-.177.96-.532 1.316a1.788 1.788 0 0 1-1.316.532h-9.156c-.56 0-1.008-.173-1.344-.518-.336-.345-.504-.79-.504-1.33 0-.765.08-1.465.238-2.1.16-.635.383-1.213.672-1.736a8.302 8.302 0 0 1 1.008-1.442c.383-.44.798-.854 1.246-1.246a19.523 19.523 0 0 1 1.988-1.54c.69-.467 1.32-.933 1.89-1.4a7.414 7.414 0 0 0 1.4-1.484c.364-.523.546-1.11.546-1.764a3.36 3.36 0 0 0-.14-.952 2.18 2.18 0 0 0-.462-.84 2.366 2.366 0 0 0-.826-.588c-.336-.15-.737-.224-1.204-.224-.56 0-1.036.06-1.428.182-.392.12-.747.275-1.064.462-.41.224-.742.434-.994.63s-.565.294-.938.294c-.485 0-.91-.173-1.274-.518-.364-.345-.546-.78-.546-1.302 0-.26.047-.513.14-.756.093-.243.27-.467.532-.672 1.53-1.213 3.435-1.82 5.712-1.82 1.157 0 2.137.187 2.94.56.803.373 1.456.854 1.96 1.442a5.66 5.66 0 0 1 1.106 1.974 6.96 6.96 0 0 1 .35 2.128c0 .99-.177 1.848-.532 2.576a7.51 7.51 0 0 1-1.358 1.946c-.55.57-1.167 1.097-1.848 1.582-.68.485-1.34.966-1.974 1.442a16.3 16.3 0 0 0-1.75 1.512 5.142 5.142 0 0 0-1.19 1.834h6.804c.523 0 .96.177 1.316.532.355.355.532.784.532 1.288zm16.408-3.304c0 .485-.173.905-.518 1.26-.345.355-.76.532-1.246.532h-.728v1.736c0 .523-.182.966-.546 1.33a1.81 1.81 0 0 1-1.33.546c-.523 0-.96-.182-1.316-.546a1.834 1.834 0 0 1-.532-1.33v-1.736h-6.104c-.485 0-.9-.168-1.246-.504-.345-.336-.518-.765-.518-1.288 0-.205.023-.373.07-.504.047-.13.098-.26.154-.392l5.684-13.468a1.83 1.83 0 0 1 1.036-1.022c.485-.196.97-.19 1.456.014.467.205.798.555.994 1.05.196.495.2.985.014 1.47l-4.704 11.06h3.164v-2.296a1.8 1.8 0 0 1 .532-1.302 1.764 1.764 0 0 1 1.316-.546c.523 0 .966.182 1.33.546.364.364.546.798.546 1.302v2.296h.728c.485 0 .9.177 1.246.532.345.355.518.775.518 1.26z" id="a"/></defs><g fill="none" fill-rule="evenodd"><use xlink:href="#a"/><use xlink:href="#a"/><use fill="url(#b)" xlink:href="#a"/><path d="M8.54 12.016v17.976c0 .26-.09.48-.266.658a.894.894 0 0 1-.658.266.908.908 0 0 1-.644-.266.87.87 0 0 1-.28-.658V12.016H.896a.9.9 0 0 1-.644-.238c-.168-.16-.252-.37-.252-.63s.084-.47.252-.63a.9.9 0 0 1 .644-.238h13.468c.243 0 .453.08.63.238.177.16.266.37.266.63s-.09.47-.266.63a.914.914 0 0 1-.63.238H8.54zm20.664 5.544c0-.84-.09-1.62-.266-2.338a5.113 5.113 0 0 0-.882-1.89c-.392-.485-.905-.877-1.54-1.176-.635-.3-1.4-.448-2.296-.448-.915 0-1.685.15-2.31.448-.625.3-1.134.69-1.526 1.176-.41.54-.71 1.17-.896 1.89a9.28 9.28 0 0 0-.28 2.338v5.796c0 .84.093 1.62.28 2.338.187.72.485 1.35.896 1.89.392.485.9.877 1.526 1.176.625.3 1.395.448 2.31.448.896 0 1.66-.15 2.296-.448.635-.3 1.148-.69 1.54-1.176a5.1 5.1 0 0 0 .882-1.89 9.77 9.77 0 0 0 .266-2.338V17.56zm1.848 5.796c0 .952-.117 1.88-.35 2.786a6.833 6.833 0 0 1-1.148 2.422c-.532.71-1.232 1.28-2.1 1.708-.868.43-1.946.644-3.234.644s-2.37-.215-3.248-.644c-.877-.43-1.582-1-2.114-1.708a6.833 6.833 0 0 1-1.148-2.422 11.118 11.118 0 0 1-.35-2.786V17.56c0-.952.117-1.88.35-2.786a6.833 6.833 0 0 1 1.148-2.422c.532-.71 1.237-1.28 2.114-1.708.877-.43 1.96-.644 3.248-.644 1.288 0 2.366.215 3.234.644.868.43 1.568 1 2.1 1.708.532.71.915 1.517 1.148 2.422.233.905.35 1.834.35 2.786v5.796zm18.284 6.636c0 .26-.09.48-.266.658a.894.894 0 0 1-.658.266.94.94 0 0 1-.672-.266.87.87 0 0 1-.28-.658V12.016H37.24v17.976c0 .26-.09.48-.266.658a.894.894 0 0 1-.658.266c-.28 0-.51-.09-.686-.266a.894.894 0 0 1-.266-.658V11.148c0-.243.084-.448.252-.616a.838.838 0 0 1 .616-.252H48.44c.243 0 .453.084.63.252a.816.816 0 0 1 .266.616v18.844z" fill="#000"/></g></svg>