<svg viewBox="0 0 500 400" xmlns="http://www.w3.org/2000/svg" fill-rule="evenodd" clip-rule="evenodd" stroke-linejoin="round" stroke-miterlimit="1.414"><path d="M284.14 156.912l54.206-101.327.743-.905c1.024-.547 1.04-.552 2.195-.665l1.12.34.905.743.552 1.032.115 1.165-.34 1.12L289.27 160.04a71.91 71.91 0 0 1 24.01 26.952 71.188 71.188 0 0 1 6.553 19.033 72.102 72.102 0 0 1 .587 23.536 71.23 71.23 0 0 1-6.368 21.02 71.95 71.95 0 0 1-25.214 28.792 71.382 71.382 0 0 1-11.84 6.293 71.03 71.03 0 0 1-13.47 4.093 71.896 71.896 0 0 1-13.975 1.367c-4.688 0-9.376-.455-13.975-1.367a71.03 71.03 0 0 1-13.47-4.093l-.033-.014-31.438 58.766-.743.905c-.894.478-1.128.77-2.198.666-.388-.038-.746-.226-1.12-.34l-.904-.743c-.548-1.025-.553-1.04-.666-2.197l.34-1.12 31.285-58.48a71.43 71.43 0 0 1-6.36-3.734 71.987 71.987 0 0 1-25.215-28.793 71.23 71.23 0 0 1-6.368-21.017 72.102 72.102 0 0 1 .587-23.535 71.188 71.188 0 0 1 6.554-19.033 71.967 71.967 0 0 1 14.674-19.517 71.847 71.847 0 0 1 19.612-13.148 71.18 71.18 0 0 1 25.306-6.21 77.62 77.62 0 0 1 4.597-.116 71.828 71.828 0 0 1 10.427.824 71.18 71.18 0 0 1 23.698 8.088zM183.406 304.005c.165.013.33.013.494.04a2.973 2.973 0 0 1 1.713.928 3.02 3.02 0 0 1 .783 2.28 2.996 2.996 0 0 1-2.496 2.71c-.163.028-.33.028-.494.042-16.395 0-32.79.052-49.186 0-1.1-.01-2.2-.074-3.292-.2a30.24 30.24 0 0 1-6.62-1.523 30.53 30.53 0 0 1-18.657-18.77 30.267 30.267 0 0 1-1.66-9.736c-.142-44.51-.142-89.02.003-133.53a30.258 30.258 0 0 1 1.66-9.734 30.542 30.542 0 0 1 7.126-11.45 30.55 30.55 0 0 1 11.706-7.383 30.217 30.217 0 0 1 6.443-1.464 31.414 31.414 0 0 1 3.482-.2h33.84c2.195-5.947 4.395-11.894 6.586-17.844a73.684 73.684 0 0 1 1.168-2.944c.29-.687.595-1.368.914-2.042 1.568-3.31 3.51-6.5 6.106-9.11.38-.38.77-.747 1.175-1.1a21.68 21.68 0 0 1 1.93-1.5 21.616 21.616 0 0 1 3.592-1.993c1.903-.832 3.913-1.397 5.953-1.77 3.052-.56 6.162-.705 9.26-.714h95.99l.494.04c.16.04.323.07.48.122a3.007 3.007 0 0 1 1.772 1.632c.133.303.215.627.243.957.068.83-.22 1.668-.783 2.28-.224.245-.488.45-.78.607a2.984 2.984 0 0 1-.933.32c-.164.028-.33.028-.495.042-32.102 0-64.205-.09-96.307 0-2.464.017-4.938.126-7.373.53-1.786.294-3.555.754-5.212 1.492a15.326 15.326 0 0 0-3.65 2.272c-1.91 1.6-3.41 3.634-4.646 5.784a37.475 37.475 0 0 0-1.392 2.674 50.38 50.38 0 0 0-.95 2.14 68.685 68.685 0 0 0-1.065 2.733l-7.174 19.43c-.168.367-.19.473-.44.796a3.02 3.02 0 0 1-1.475 1.028c-.39.122-.495.107-.9.138-12.08 0-24.16-.113-36.237.002a24.294 24.294 0 0 0-7.937 1.43 24.535 24.535 0 0 0-14.74 14.74 24.27 24.27 0 0 0-1.43 7.936 7034.126 7034.126 0 0 0 0 133.77c.014.884.07 1.766.176 2.643a24.192 24.192 0 0 0 1.253 5.293 24.545 24.545 0 0 0 6.467 9.725 24.512 24.512 0 0 0 8.414 5.066 24.324 24.324 0 0 0 8.117 1.38h48.986zm182.183 5.99h-133.6c-.156-.014-.314-.014-.47-.038a2.997 2.997 0 0 1-2.493-2.494 2.995 2.995 0 0 1 2.494-3.432c.156-.024.314-.024.47-.036 44.637 0 89.275.424 133.91-.002a24.294 24.294 0 0 0 7.936-1.43 24.537 24.537 0 0 0 14.69-14.6 24.262 24.262 0 0 0 1.265-5.128c.13-.978.2-1.963.216-2.95a7018.1 7018.1 0 0 0 0-133.775 25.286 25.286 0 0 0-.215-2.95 24.262 24.262 0 0 0-3.954-10.385 24.635 24.635 0 0 0-4.164-4.72A24.29 24.29 0 0 0 365.58 122h-33.646c-.157-.012-.314-.012-.47-.037a3.012 3.012 0 0 1-2.203-1.6 2.997 2.997 0 0 1 .553-3.484 2.972 2.972 0 0 1 1.652-.844c.155-.025.312-.025.47-.037 11.28 0 22.564-.036 33.846 0a30.277 30.277 0 0 1 16.047 4.697 30.547 30.547 0 0 1 12.46 15.618 30.254 30.254 0 0 1 1.524 6.62c.126 1.094.19 2.192.2 3.293.13 44.51.13 89.023 0 133.535-.01 1.1-.074 2.2-.2 3.293a30.232 30.232 0 0 1-1.523 6.618 30.533 30.533 0 0 1-18.77 18.657 30.406 30.406 0 0 1-9.927 1.663zM286.423 165.36L224.92 280.33a65.12 65.12 0 0 0 11.825 3.54 65.876 65.876 0 0 0 12.808 1.253c4.297 0 8.593-.416 12.808-1.252a65.077 65.077 0 0 0 12.333-3.745 65.816 65.816 0 0 0 20.368-13.386 65.925 65.925 0 0 0 13.76-19.126 65.223 65.223 0 0 0 5.715-19.293 66.098 66.098 0 0 0-.752-21.966 65.217 65.217 0 0 0-6.21-17.33 65.945 65.945 0 0 0-21.148-23.664zm-5.116-3.157a65.157 65.157 0 0 0-27.963-8.095 71.417 71.417 0 0 0-4.218-.107 72.788 72.788 0 0 0-3.37.11 65.157 65.157 0 0 0-23.176 5.685 65.83 65.83 0 0 0-17.97 12.048 66.002 66.002 0 0 0-13.08 17.182 65.217 65.217 0 0 0-6.21 17.33 66.098 66.098 0 0 0-.75 21.966 65.223 65.223 0 0 0 5.714 19.294 65.944 65.944 0 0 0 29.175 30.2l61.846-115.61z" fill="#e8e8e8"/></svg>