<svg viewBox="0 0 250 200" xmlns="http://www.w3.org/2000/svg" fill-rule="evenodd" clip-rule="evenodd" stroke-linejoin="round" stroke-miterlimit="1.414"><path d="M142.377 76.333l26.86-50.275c.06-.093.11-.19.178-.278.27-.35.655-.605 1.084-.716.283-.074.36-.056.653-.058l.327.053c.277.09.357.1.605.26a1.995 1.995 0 0 1 .89 2c-.048.29-.095.353-.21.62l-26.96 50.466a37.298 37.298 0 0 1 5.195 4.28 37.245 37.245 0 0 1 6.846 9.274 36.81 36.81 0 0 1 3.447 9.815c.793 3.996.92 8.125.38 12.164a36.826 36.826 0 0 1-3.228 10.893 37.172 37.172 0 0 1-19.047 18.255 36.724 36.724 0 0 1-7.173 2.203c-2.3.457-4.642.693-6.986.707a37.196 37.196 0 0 1-6.557-.538 36.796 36.796 0 0 1-7.554-2.155L94.762 173.94c-.06.092-.112.19-.18.277a2.008 2.008 0 0 1-1.738.774 1.99 1.99 0 0 1-.64-.157A2.013 2.013 0 0 1 91 173.01c0-.22.034-.44.105-.65.035-.104.087-.2.13-.302l16.27-30.454A37.192 37.192 0 0 1 91.75 125.24a36.825 36.825 0 0 1-3.358-10.84 37.31 37.31 0 0 1 .186-11.944A36.817 36.817 0 0 1 91.95 92.36a37.2 37.2 0 0 1 17.42-16.9 36.84 36.84 0 0 1 9.77-2.998 38.027 38.027 0 0 1 6.1-.46 36.883 36.883 0 0 1 14.984 3.27c.728.33 1.446.683 2.153 1.06zM91.01 156H65.992a15.92 15.92 0 0 1-5.308-.906 16.063 16.063 0 0 1-9.713-9.594 15.964 15.964 0 0 1-.97-5.294c-.15-22.736 0-45.476 0-68.213a15.92 15.92 0 0 1 .906-5.308 16.053 16.053 0 0 1 9.78-9.78A15.92 15.92 0 0 1 65.993 56H82.94c1.11-3.028 2.2-6.063 3.33-9.084.097-.257.197-.513.3-.77.62-1.53 1.342-3.027 2.274-4.395a13.55 13.55 0 0 1 2.204-2.532 11.417 11.417 0 0 1 2.928-1.88c2.182-.97 4.597-1.26 6.964-1.323.352-.01.703-.012 1.055-.014H151l.298.023c.097.023.196.038.292.067a2.01 2.01 0 0 1 1.272 1.18 2 2 0 0 1-1.564 2.708c-.098.015-.198.015-.298.022h-48.995c-1.41.007-2.83.062-4.216.33-1.138.217-2.25.59-3.227 1.224a7.71 7.71 0 0 0-1.395 1.172c-.72.76-1.3 1.643-1.797 2.56-.59 1.09-1.066 2.24-1.495 3.403l-3.66 9.997c-.098.22-.112.28-.253.477a2.01 2.01 0 0 1-1.09.762c-.233.065-.296.057-.536.073-6.164 0-12.33-.04-18.493 0a11.973 11.973 0 0 0-3.968.726 12.026 12.026 0 0 0-3.506 2.014 12.09 12.09 0 0 0-3.643 5.136 11.895 11.895 0 0 0-.727 3.97c-.147 22.768-.147 45.54 0 68.31a11.95 11.95 0 0 0 .727 3.968 12.07 12.07 0 0 0 3.423 4.95A11.973 11.973 0 0 0 66.007 152H91.01c.1.007.2.008.297.022.396.06.77.24 1.062.512a2.01 2.01 0 0 1 .5 2.197 2.01 2.01 0 0 1-.735.923c-.248.17-.533.28-.83.326-.097.014-.197.014-.297.02zm92.996 0H115.98c-.24-.017-.304-.008-.54-.074a2.012 2.012 0 0 1-1.235-1.006 2.015 2.015 0 0 1-.11-1.59 1.998 1.998 0 0 1 1.613-1.31c.09-.014.182-.014.273-.02 22.727 0 45.45.145 68.176 0a11.993 11.993 0 0 0 3.97-.727 12.067 12.067 0 0 0 7.146-7.15 11.933 11.933 0 0 0 .727-3.968c.14-22.77.14-45.54 0-68.31a11.936 11.936 0 0 0-3.12-7.91 12.067 12.067 0 0 0-4.757-3.206 11.993 11.993 0 0 0-4.13-.73H167c-.09-.005-.182-.005-.272-.02a1.998 1.998 0 0 1-1.19-3.344c.25-.267.57-.462.922-.56.235-.067.3-.058.54-.075 5.735 0 11.47-.035 17.206 0a15.92 15.92 0 0 1 5.11.906 16.048 16.048 0 0 1 9.713 9.594 15.978 15.978 0 0 1 .97 5.295c.14 22.737 0 45.475 0 68.212a15.917 15.917 0 0 1-.905 5.31 16.025 16.025 0 0 1-3.253 5.44 16.084 16.084 0 0 1-6.525 4.338 15.92 15.92 0 0 1-5.31.906zm-40.1-74.042l-30.88 57.8a32.776 32.776 0 0 0 11.76 2.24 33.15 33.15 0 0 0 5.85-.478 32.718 32.718 0 0 0 6.83-1.96 33.13 33.13 0 0 0 10.297-6.677 33.193 33.193 0 0 0 6.894-9.403 32.827 32.827 0 0 0 2.993-9.66c.527-3.6.46-7.286-.203-10.863a32.836 32.836 0 0 0-3.058-8.973 33.22 33.22 0 0 0-10.484-12.026zm-3.414-2.097a32.772 32.772 0 0 0-10.263-3.447 33.766 33.766 0 0 0-5.443-.41 32.81 32.81 0 0 0-13.36 2.915 33.14 33.14 0 0 0-9.046 6.063 33.23 33.23 0 0 0-6.395 8.3 32.83 32.83 0 0 0-3.354 9.274 33.28 33.28 0 0 0-.337 10.856 32.837 32.837 0 0 0 2.79 9.528 33.194 33.194 0 0 0 14.31 15.138l31.1-58.215z" fill="#e8e8e8"/></svg>