<svg viewBox="0 0 60 60" xmlns="http://www.w3.org/2000/svg" fill-rule="evenodd" clip-rule="evenodd" stroke-linejoin="round" stroke-miterlimit="1.414"><path d="M34.983 23.15l7.13-13.614c.06-.095.07-.123.144-.206a.998.998 0 0 1 .536-.308c.11-.024.138-.02.25-.02l.125.012c.04.01.082.017.122.03.08.023.157.058.23.1a1.007 1.007 0 0 1 .417 1.205c-.015.04-.034.075-.05.113L36.69 24.2a11.127 11.127 0 0 1 3.235 3.83 11 11 0 0 1 1.04 3.08 11.17 11.17 0 0 1 .065 3.505 11.035 11.035 0 0 1-3.326 6.464 11.1 11.1 0 0 1-3.452 2.237 11.08 11.08 0 0 1-7.704.246l-4.663 8.9c-.058.095-.068.123-.143.206a1.012 1.012 0 0 1-.786.33 1.008 1.008 0 0 1-.957-.98 1.01 1.01 0 0 1 .062-.37c.015-.04.034-.077.05-.115l4.6-8.78a11.115 11.115 0 0 1-4.62-4.89 11.037 11.037 0 0 1-.986-3.25 11.175 11.175 0 0 1 .09-3.64c.214-1.112.6-2.19 1.14-3.183a11.173 11.173 0 0 1 5.055-4.758A11.007 11.007 0 0 1 29.927 22h.285c.52.01 1.033.05 1.543.128a10.997 10.997 0 0 1 3.23 1.022zM18 47.994h-4.98a5.024 5.024 0 0 1-1.605-.264 5.035 5.035 0 0 1-3.413-4.634C7.916 36.412 8 29.726 8 23.042a5.02 5.02 0 0 1 5.02-5.022h4.564l.83-2.47c.044-.12.09-.24.137-.36a7.12 7.12 0 0 1 .73-1.388c.194-.28.42-.54.673-.764a3.7 3.7 0 0 1 .995-.63c.766-.33 1.61-.398 2.434-.402H36l.116.007c.102.018.13.018.226.053a1.006 1.006 0 0 1 .656.998c-.02.353-.233.677-.55.836a.994.994 0 0 1-.332.1c-.038.004-.077.004-.116.006-4.264 0-8.53-.055-12.793.002a5.65 5.65 0 0 0-.954.085 2.18 2.18 0 0 0-.758.28c-.15.093-.28.21-.397.343a3.314 3.314 0 0 0-.435.657 7.57 7.57 0 0 0-.364.843l-1.05 3.123c-.037.09-.043.117-.096.203a1.005 1.005 0 0 1-.74.47c-.036.004-.074.004-.112.006-1.785 0-3.57-.02-5.354 0-.33.013-.653.07-.962.183a3.058 3.058 0 0 0-1.778 1.735c-.13.33-.195.676-.21 1.03a790.318 790.318 0 0 0 0 20.075c.014.33.07.652.184.962.303.83.974 1.5 1.803 1.804.337.123.69.18 1.047.183H18c.103.006.13.003.23.027a1.006 1.006 0 0 1 .688.578c.157.363.08.795-.19 1.083a.994.994 0 0 1-.612.31c-.038.003-.077.003-.116.005zm28.98 0H29c-.035-.002-.07-.002-.105-.005a1.01 1.01 0 0 1-.81-.59 1.01 1.01 0 0 1 .172-1.076c.14-.156.33-.265.535-.31.09-.018.115-.016.208-.02 6.017 0 12.035.077 18.052-.002.33-.012.652-.07.962-.182a3.06 3.06 0 0 0 1.803-1.803c.114-.31.17-.633.183-.962a800.84 800.84 0 0 0 0-20.09 3.118 3.118 0 0 0-.183-.96 3.057 3.057 0 0 0-1.803-1.804 3.14 3.14 0 0 0-1.047-.182H43c-.035-.002-.07-.002-.105-.005a1.005 1.005 0 0 1-.638-.326c-.262-.29-.33-.72-.17-1.076a1.007 1.007 0 0 1 .706-.57c.09-.02.114-.017.207-.022 1.367 0 2.735-.016 4.103.002a5.06 5.06 0 0 1 1.714.347 5.057 5.057 0 0 1 2.878 2.95A4.985 4.985 0 0 1 52 22.904c.084 6.69 0 13.38 0 20.068a4.993 4.993 0 0 1-.265 1.606 5.05 5.05 0 0 1-3.034 3.11 5.01 5.01 0 0 1-1.72.304zM35.747 26.002L27.49 41.765a9.11 9.11 0 0 0 6.005-.298 9.098 9.098 0 0 0 5.554-7.13 9.036 9.036 0 0 0-3.303-8.335zm-1.692-1.08l-.156-.075A9.017 9.017 0 0 0 30.184 24h-.235a9 9 0 0 0-3.712.846 9.165 9.165 0 0 0-4.246 4.096 9.068 9.068 0 0 0-.098 8.056 9.125 9.125 0 0 0 3.748 3.985l8.413-16.06z" fill="#e8e8e8"/></svg>